<svg width="20" height="20" viewBox="0 0 20 20" fill="none" xmlns="http://www.w3.org/2000/svg">
<g clip-path="url(#clip0_160_4478)">
<path d="M17.2227 17.2222H2.77821C2.63087 17.2222 2.48956 17.2807 2.38537 17.3849C2.28119 17.4891 2.22266 17.6304 2.22266 17.7777C2.22266 17.9251 2.28119 18.0664 2.38537 18.1706C2.48956 18.2747 2.63087 18.3333 2.77821 18.3333H17.2227C17.37 18.3333 17.5113 18.2747 17.6155 18.1706C17.7197 18.0664 17.7782 17.9251 17.7782 17.7777C17.7782 17.6304 17.7197 17.4891 17.6155 17.3849C17.5113 17.2807 17.37 17.2222 17.2227 17.2222Z" fill="#0B5AFD"/>
<path d="M10.0001 16.3777L15.8945 10.4833C15.9855 10.377 16.0331 10.2403 16.0277 10.1005C16.0223 9.96065 15.9643 9.82802 15.8654 9.72908C15.7664 9.63014 15.6338 9.57217 15.494 9.56677C15.3542 9.56137 15.2175 9.60893 15.1112 9.69995L10.5556 14.2499V2.77772C10.5556 2.63038 10.4971 2.48907 10.3929 2.38489C10.2887 2.2807 10.1474 2.22217 10.0001 2.22217C9.85273 2.22217 9.71142 2.2807 9.60723 2.38489C9.50305 2.48907 9.44452 2.63038 9.44452 2.77772V14.2499L4.89452 9.69995C4.84471 9.64179 4.78343 9.59456 4.7145 9.56121C4.64558 9.52786 4.5705 9.50912 4.49399 9.50617C4.41748 9.50321 4.34118 9.51611 4.26989 9.54404C4.1986 9.57197 4.13385 9.61433 4.07971 9.66847C4.02557 9.72261 3.9832 9.78736 3.95527 9.85866C3.92734 9.92995 3.91445 10.0062 3.91741 10.0828C3.92036 10.1593 3.9391 10.2343 3.97245 10.3033C4.00579 10.3722 4.05303 10.4335 4.11118 10.4833L10.0001 16.3777Z" fill="#0B5AFD"/>
</g>
<defs>
<clipPath id="clip0_160_4478">
<rect width="20" height="20" fill="white"/>
</clipPath>
</defs>
</svg>
