<svg width="18" height="18" viewBox="0 0 18 18" fill="none" xmlns="http://www.w3.org/2000/svg">
<rect x="0.5" y="0.5" width="17" height="17" rx="3" fill="#FA1616" fill-opacity="0.3"/>
<path d="M5.14286 14.1667C5.14286 14.9 5.72143 15.5 6.42857 15.5H11.5714C12.2786 15.5 12.8571 14.9 12.8571 14.1667V7.5C12.8571 6.76667 12.2786 6.16667 11.5714 6.16667H6.42857C5.72143 6.16667 5.14286 6.76667 5.14286 7.5V14.1667ZM12.8571 4.16667H11.25L10.7936 3.69333C10.6779 3.57333 10.5107 3.5 10.3436 3.5H7.65643C7.48929 3.5 7.32214 3.57333 7.20643 3.69333L6.75 4.16667H5.14286C4.78929 4.16667 4.5 4.46667 4.5 4.83333C4.5 5.2 4.78929 5.5 5.14286 5.5H12.8571C13.2107 5.5 13.5 5.2 13.5 4.83333C13.5 4.46667 13.2107 4.16667 12.8571 4.16667Z" fill="#FA1616"/>
</svg>
