<svg width="20" height="20" viewBox="0 0 20 20" fill="none" xmlns="http://www.w3.org/2000/svg">
<path fill-rule="evenodd" clip-rule="evenodd" d="M17.8796 4.51333C17.9587 4.63351 17.994 4.77732 17.9794 4.92049C17.9649 5.06366 17.9013 5.19741 17.7996 5.29917L10.1387 12.9592C10.0604 13.0375 9.96258 13.0936 9.8554 13.1217L6.66457 13.955C6.55909 13.9825 6.44826 13.982 6.34306 13.9534C6.23787 13.9248 6.14197 13.8692 6.06489 13.7922C5.98782 13.7151 5.93224 13.6192 5.90368 13.514C5.87511 13.4088 5.87456 13.298 5.90207 13.1925L6.7354 10.0025C6.76032 9.90697 6.80614 9.81816 6.86957 9.7425L14.5587 2.05833C14.6759 1.94129 14.8348 1.87555 15.0004 1.87555C15.166 1.87555 15.3249 1.94129 15.4421 2.05833L17.7996 4.415C17.8287 4.4457 17.8554 4.47857 17.8796 4.51333ZM16.4737 4.85667L15.0004 3.38417L7.90207 10.4825L7.38123 12.4767L9.3754 11.9558L16.4737 4.85667Z" fill="#0B5AFD"/>
<path d="M16.3672 14.3C16.595 12.3533 16.6677 10.3916 16.5847 8.43334C16.5827 8.38718 16.5904 8.34113 16.6072 8.29809C16.624 8.25506 16.6495 8.21598 16.6822 8.18334L17.5022 7.36334C17.5246 7.3408 17.553 7.32522 17.5841 7.31846C17.6151 7.3117 17.6475 7.31404 17.6772 7.32522C17.707 7.3364 17.7329 7.35593 17.7518 7.38147C17.7707 7.407 17.7818 7.43746 17.7839 7.46917C17.9378 9.79521 17.8792 12.1304 17.6089 14.4458C17.4122 16.1308 16.0589 17.4517 14.3814 17.6392C11.4691 17.9615 8.53024 17.9615 5.61802 17.6392C3.94135 17.4517 2.58719 16.1308 2.39052 14.4458C2.04561 11.492 2.04561 8.50802 2.39052 5.55417C2.58719 3.86917 3.94052 2.54834 5.61802 2.36084C7.82839 2.11671 10.0553 2.05734 12.2755 2.18334C12.3073 2.18562 12.3377 2.19696 12.3633 2.21601C12.3888 2.23507 12.4083 2.26104 12.4196 2.29085C12.4308 2.32067 12.4332 2.35307 12.4266 2.38423C12.42 2.41539 12.4046 2.444 12.3822 2.46667L11.5547 3.29334C11.5223 3.32571 11.4837 3.35107 11.4411 3.36785C11.3985 3.38462 11.3529 3.39245 11.3072 3.39084C9.45448 3.32738 7.59961 3.3984 5.75719 3.60334C5.2188 3.66293 4.71623 3.90227 4.33065 4.28271C3.94507 4.66315 3.699 5.16247 3.63219 5.7C3.2979 8.55692 3.2979 11.4431 3.63219 14.3C3.699 14.8375 3.94507 15.3369 4.33065 15.7173C4.71623 16.0977 5.2188 16.3371 5.75719 16.3967C8.55302 16.7092 11.4464 16.7092 14.243 16.3967C14.7814 16.3371 15.284 16.0977 15.6696 15.7173C16.0551 15.3369 16.3004 14.8375 16.3672 14.3Z" fill="#0B5AFD"/>
</svg>
