<svg width="20" height="20" viewBox="0 0 20 20" fill="none" xmlns="http://www.w3.org/2000/svg">
<path d="M10.0002 16.8C6.2402 16.8 3.2002 13.76 3.2002 10C3.2002 6.24001 6.2402 3.20001 10.0002 3.20001C13.7602 3.20001 16.8002 6.24001 16.8002 10C16.8002 13.76 13.7602 16.8 10.0002 16.8ZM10.0002 4.00001C6.6802 4.00001 4.0002 6.68001 4.0002 10C4.0002 13.32 6.6802 16 10.0002 16C13.3202 16 16.0002 13.32 16.0002 10C16.0002 6.68001 13.3202 4.00001 10.0002 4.00001Z" fill="white"/>
<path d="M6.40039 9.60001H13.6004V10.4H6.40039V9.60001Z" fill="white"/>
<path d="M9.59961 6.39999H10.3996V13.6H9.59961V6.39999Z" fill="white"/>
</svg>
