<svg width="15" height="15" viewBox="0 0 15 15" fill="none" xmlns="http://www.w3.org/2000/svg">
<g clip-path="url(#clip0_333_489)">
<path d="M10.9786 4.72855C10.7833 4.53329 10.4667 4.53329 10.2714 4.72855L10.0966 4.90338C9.90163 5.09837 9.90132 5.41443 10.0959 5.6098L10.5067 6.02213C10.8207 6.33739 10.5974 6.875 10.1524 6.875H5.5C5.22386 6.875 5 7.09886 5 7.375V7.625C5 7.90114 5.22386 8.125 5.5 8.125H10.1491C10.5946 8.125 10.8177 8.66357 10.5027 8.97855L10.0961 9.38519C9.90128 9.57997 9.90073 9.89559 10.0948 10.091L10.2715 10.2689C10.4665 10.4654 10.7841 10.4659 10.9798 10.2702L13.3964 7.85355C13.5917 7.65829 13.5917 7.34171 13.3964 7.14645L10.9786 4.72855ZM2.5 3.625C2.5 3.34886 2.72386 3.125 3 3.125H7C7.27614 3.125 7.5 2.90114 7.5 2.625V2.375C7.5 2.09886 7.27614 1.875 7 1.875H2.5C1.8125 1.875 1.25 2.4375 1.25 3.125V11.875C1.25 12.5625 1.8125 13.125 2.5 13.125H7C7.27614 13.125 7.5 12.9011 7.5 12.625V12.375C7.5 12.0989 7.27614 11.875 7 11.875H3C2.72386 11.875 2.5 11.6511 2.5 11.375V3.625Z" fill="white"/>
</g>
<defs>
<clipPath id="clip0_333_489">
<rect width="15" height="15" fill="white"/>
</clipPath>
</defs>
</svg>