<svg width="18" height="18" viewBox="0 0 18 18" fill="none" xmlns="http://www.w3.org/2000/svg">
<rect x="0.5" y="0.5" width="17" height="17" rx="3" fill="#50D391" fill-opacity="0.3"/>
<path d="M11.6788 3.62609C11.7787 3.63505 11.8224 3.75691 11.7506 3.82799L6.77243 8.79781C6.7162 8.85399 6.67593 8.92408 6.65576 9.00091L6.05742 11.2887C6.03767 11.3643 6.03807 11.4437 6.05857 11.5192C6.07908 11.5946 6.11899 11.6633 6.17433 11.7185C6.22967 11.7738 6.29853 11.8136 6.37406 11.8341C6.44959 11.8546 6.52917 11.855 6.6049 11.8353L8.89593 11.2379C8.97294 11.2176 9.04315 11.1772 9.09937 11.1208L14.1481 6.08054C14.1639 6.06435 14.1841 6.05302 14.2061 6.04788C14.2281 6.04275 14.2512 6.04403 14.2725 6.05157C14.2939 6.05911 14.3126 6.0726 14.3265 6.09044C14.3404 6.10828 14.3489 6.12971 14.351 6.15222C14.561 8.15307 14.549 10.171 14.3151 12.1692C14.1817 13.3071 13.2656 14.2001 12.13 14.3273C10.0499 14.5576 7.95077 14.5576 5.87074 14.3273C4.73449 14.2001 3.81844 13.3071 3.68501 12.1692C3.43833 10.0636 3.43833 7.93645 3.68501 5.83085C3.81844 4.69233 4.73449 3.79932 5.87074 3.67268C7.80009 3.45923 9.74627 3.44362 11.6788 3.62609Z" fill="#50D391"/>
<path d="M12.4684 4.54115C12.4814 4.5281 12.4968 4.51776 12.5139 4.5107C12.5309 4.50363 12.5491 4.5 12.5676 4.5C12.586 4.5 12.6042 4.50363 12.6213 4.5107C12.6383 4.51776 12.6537 4.5281 12.6667 4.54115L13.4591 5.3339C13.4853 5.36015 13.5 5.39571 13.5 5.43278C13.5 5.46985 13.4853 5.50541 13.4591 5.53167L8.8119 10.1789C8.79418 10.1965 8.77214 10.209 8.74802 10.2153L7.67545 10.4955C7.65181 10.5016 7.62696 10.5015 7.60338 10.4951C7.5798 10.4887 7.55831 10.4763 7.54103 10.459C7.52376 10.4417 7.5113 10.4202 7.5049 10.3966C7.49849 10.3731 7.49837 10.3482 7.50453 10.3246L7.78472 9.25228C7.79096 9.22812 7.80354 9.20607 7.82115 9.18841L12.4684 4.54115Z" fill="#50D391"/>
</svg>
