<svg width="24" height="24" viewBox="0 0 24 24" fill="none" xmlns="http://www.w3.org/2000/svg">
<g clip-path="url(#clip0_160_4454)">
<path d="M21.625 19.875C21.0727 19.875 20.625 19.4273 20.625 18.875V5.12501C20.625 4.57272 20.1773 4.12501 19.625 4.12501H17.5C16.9477 4.12501 16.5 3.67729 16.5 3.12501V1.79679C16.5 1.17658 15.9413 0.70595 15.3301 0.811326L4.95509 2.60011C4.47544 2.68281 4.125 3.09884 4.125 3.58557V18.875C4.125 19.4273 3.67728 19.875 3.125 19.875H1.5C1.08579 19.875 0.75 20.2108 0.75 20.625C0.75 21.0392 1.08579 21.375 1.5 21.375H4.82344L15.3634 22.8288C15.9643 22.9116 16.5 22.4447 16.5 21.8381V6.62501C16.5 6.07272 16.9477 5.62501 17.5 5.62501H18.125C18.6773 5.62501 19.125 6.07272 19.125 6.62501V20.375C19.125 20.9273 19.5727 21.375 20.125 21.375H22.5C22.9142 21.375 23.25 21.0392 23.25 20.625C23.25 20.2108 22.9142 19.875 22.5 19.875H21.625ZM15 20.1171C15 20.7237 14.4643 21.1906 13.8634 21.1077L6.48836 20.0905C5.99356 20.0222 5.625 19.5993 5.625 19.0998V4.84915C5.625 4.36241 5.97545 3.94638 6.45512 3.86369L13.8301 2.59231C14.4413 2.48695 15 2.95758 15 3.57778V20.1171Z" fill="#010919" stroke="#010919" stroke-width="0.6"/>
<path d="M12 11.625C12 11.2108 12.3358 10.875 12.75 10.875C13.1642 10.875 13.5 11.2108 13.5 11.625V13.125C13.5 13.5392 13.1642 13.875 12.75 13.875C12.3358 13.875 12 13.5392 12 13.125V11.625Z" fill="#010919"/>
</g>
<defs>
<clipPath id="clip0_160_4454">
<rect width="24" height="24" fill="white"/>
</clipPath>
</defs>
</svg>
