<svg width="24" height="24" viewBox="0 0 24 24" fill="none" xmlns="http://www.w3.org/2000/svg">
<path d="M21 10H3C2.73478 10 2.48043 9.89464 2.29289 9.70711C2.10536 9.51957 2 9.26522 2 9V5C2 4.73478 2.10536 4.48043 2.29289 4.29289C2.48043 4.10536 2.73478 4 3 4H21C21.2652 4 21.5196 4.10536 21.7071 4.29289C21.8946 4.48043 22 4.73478 22 5V9C22 9.26522 21.8946 9.51957 21.7071 9.70711C21.5196 9.89464 21.2652 10 21 10ZM4 8H20V6H4V8Z" fill="#010919"/>
<path d="M20 21H4C3.73478 21 3.48043 20.8946 3.29289 20.7071C3.10536 20.5196 3 20.2652 3 20V9C3 8.73478 3.10536 8.48043 3.29289 8.29289C3.48043 8.10536 3.73478 8 4 8H20C20.2652 8 20.5196 8.10536 20.7071 8.29289C20.8946 8.48043 21 8.73478 21 9V20C21 20.2652 20.8946 20.5196 20.7071 20.7071C20.5196 20.8946 20.2652 21 20 21ZM5 19H19V10H5V19Z" fill="#010919"/>
<path d="M13 12.75H11C10.8011 12.75 10.6103 12.671 10.4697 12.5303C10.329 12.3897 10.25 12.1989 10.25 12C10.25 11.8011 10.329 11.6103 10.4697 11.4697C10.6103 11.329 10.8011 11.25 11 11.25H13C13.1989 11.25 13.3897 11.329 13.5303 11.4697C13.671 11.6103 13.75 11.8011 13.75 12C13.75 12.1989 13.671 12.3897 13.5303 12.5303C13.3897 12.671 13.1989 12.75 13 12.75Z" fill="#010919"/>
</svg>
